<?xml version="1.0" encoding="utf-8" standalone="no"?>
<!DOCTYPE svg PUBLIC "-//W3C//DTD SVG 1.1//EN"
  "http://www.w3.org/Graphics/SVG/1.1/DTD/svg11.dtd">
<svg xmlns:xlink="http://www.w3.org/1999/xlink" width="460.8pt" height="345.6pt" viewBox="0 0 460.8 345.6" xmlns="http://www.w3.org/2000/svg" version="1.1">
 <metadata>
  <rdf:RDF xmlns:dc="http://purl.org/dc/elements/1.1/" xmlns:cc="http://creativecommons.org/ns#" xmlns:rdf="http://www.w3.org/1999/02/22-rdf-syntax-ns#">
   <cc:Work>
    <dc:type rdf:resource="http://purl.org/dc/dcmitype/StillImage"/>
    <dc:date>2022-01-08T05:59:13.024624</dc:date>
    <dc:format>image/svg+xml</dc:format>
    <dc:creator>
     <cc:Agent>
      <dc:title>Matplotlib v3.5.1, https://matplotlib.org/</dc:title>
     </cc:Agent>
    </dc:creator>
   </cc:Work>
  </rdf:RDF>
 </metadata>
 <defs>
  <style type="text/css">*{stroke-linejoin: round; stroke-linecap: butt}</style>
 </defs>
 <g id="figure_1">
  <g id="patch_1">
   <path d="M 0 345.6 
L 460.8 345.6 
L 460.8 0 
L 0 0 
z
" style="fill: #ffffff"/>
  </g>
  <g id="axes_1">
   <g id="patch_2">
    <path d="M 155.187188 332.38 
L 298.273594 332.38 
L 298.273594 35.01 
L 155.187188 35.01 
z
" style="fill: #f5f4f3"/>
   </g>
   <g id="patch_3">
    <path d="M 155.187188 318.863182 
L 279.934395 318.863182 
L 279.934395 281.575408 
L 155.187188 281.575408 
z
" clip-path="url(#p75c6e6bb79)" style="fill: #6768ab"/>
   </g>
   <g id="patch_4">
    <path d="M 155.187188 272.253464 
L 547.401339 272.253464 
L 547.401339 234.96569 
L 155.187188 234.96569 
z
" clip-path="url(#p75c6e6bb79)" style="fill: #6768ab"/>
   </g>
   <g id="patch_5">
    <path d="M 155.187188 225.643746 
L 250.263059 225.643746 
L 250.263059 188.355972 
L 155.187188 188.355972 
z
" clip-path="url(#p75c6e6bb79)" style="fill: #6768ab"/>
   </g>
   <g id="patch_6">
    <path d="M 155.187188 179.034028 
L 689.103531 179.034028 
L 689.103531 141.746254 
L 155.187188 141.746254 
z
" clip-path="url(#p75c6e6bb79)" style="fill: #6768ab"/>
   </g>
   <g id="patch_7">
    <path d="M 155.187188 132.42431 
L 272.665295 132.42431 
L 272.665295 95.136536 
L 155.187188 95.136536 
z
" clip-path="url(#p75c6e6bb79)" style="fill: #6768ab"/>
   </g>
   <g id="patch_8">
    <path d="M 155.187188 85.814592 
L 285.265739 85.814592 
L 285.265739 48.526818 
L 155.187188 48.526818 
z
" clip-path="url(#p75c6e6bb79)" style="fill: #6768ab"/>
   </g>
   <g id="matplotlib.axis_1">
    <g id="ytick_1">
     <g id="line2d_1">
      <defs>
       <path id="mcf641f0795" d="M 0 0 
L -3.5 0 
" style="stroke: #676466; stroke-width: 0.8"/>
      </defs>
      <g>
       <use xlink:href="#mcf641f0795" x="155.187188" y="300.219295" style="fill: #676466; stroke: #676466; stroke-width: 0.8"/>
      </g>
     </g>
     <g id="text_1">
      <!-- sqlx-v0.5 -->
      <g style="fill: #2d282e" transform="translate(94.004375 304.045076)scale(0.1 -0.1)">
       <defs>
        <path id="DejaVuSansMono-73" d="M 3041 3378 
L 3041 2816 
Q 2794 2959 2544 3031 
Q 2294 3103 2034 3103 
Q 1644 3103 1451 2976 
Q 1259 2850 1259 2591 
Q 1259 2356 1403 2240 
Q 1547 2125 2119 2016 
L 2350 1972 
Q 2778 1891 2998 1647 
Q 3219 1403 3219 1013 
Q 3219 494 2850 201 
Q 2481 -91 1825 -91 
Q 1566 -91 1281 -36 
Q 997 19 666 128 
L 666 722 
Q 988 556 1281 473 
Q 1575 391 1838 391 
Q 2219 391 2428 545 
Q 2638 700 2638 978 
Q 2638 1378 1872 1531 
L 1847 1538 
L 1631 1581 
Q 1134 1678 906 1908 
Q 678 2138 678 2534 
Q 678 3038 1018 3311 
Q 1359 3584 1991 3584 
Q 2272 3584 2531 3532 
Q 2791 3481 3041 3378 
z
" transform="scale(0.015625)"/>
        <path id="DejaVuSansMono-71" d="M 1038 1734 
Q 1038 1066 1248 725 
Q 1459 384 1875 384 
Q 2291 384 2505 726 
Q 2719 1069 2719 1734 
Q 2719 2400 2505 2742 
Q 2291 3084 1875 3084 
Q 1459 3084 1248 2743 
Q 1038 2403 1038 1734 
z
M 2719 434 
Q 2578 175 2339 36 
Q 2100 -103 1784 -103 
Q 1156 -103 792 383 
Q 428 869 428 1722 
Q 428 2591 790 3081 
Q 1153 3572 1784 3572 
Q 2097 3572 2336 3436 
Q 2575 3300 2719 3041 
L 2719 3488 
L 3297 3488 
L 3297 -1344 
L 2719 -1344 
L 2719 434 
z
" transform="scale(0.015625)"/>
        <path id="DejaVuSansMono-6c" d="M 1997 1269 
Q 1997 881 2139 684 
Q 2281 488 2559 488 
L 3231 488 
L 3231 0 
L 2503 0 
Q 1988 0 1705 331 
Q 1422 663 1422 1269 
L 1422 4447 
L 500 4447 
L 500 4897 
L 1997 4897 
L 1997 1269 
z
" transform="scale(0.015625)"/>
        <path id="DejaVuSansMono-78" d="M 3494 3500 
L 2241 1825 
L 3616 0 
L 2950 0 
L 1925 1403 
L 903 0 
L 238 0 
L 1613 1825 
L 359 3500 
L 997 3500 
L 1925 2234 
L 2847 3500 
L 3494 3500 
z
" transform="scale(0.015625)"/>
        <path id="DejaVuSansMono-2d" d="M 1113 2009 
L 2741 2009 
L 2741 1497 
L 1113 1497 
L 1113 2009 
z
" transform="scale(0.015625)"/>
        <path id="DejaVuSansMono-76" d="M 313 3500 
L 909 3500 
L 1925 563 
L 2944 3500 
L 3541 3500 
L 2297 0 
L 1556 0 
L 313 3500 
z
" transform="scale(0.015625)"/>
        <path id="DejaVuSansMono-30" d="M 1509 2344 
Q 1509 2516 1629 2641 
Q 1750 2766 1919 2766 
Q 2094 2766 2219 2641 
Q 2344 2516 2344 2344 
Q 2344 2169 2220 2047 
Q 2097 1925 1919 1925 
Q 1744 1925 1626 2044 
Q 1509 2163 1509 2344 
z
M 1925 4250 
Q 1484 4250 1267 3775 
Q 1050 3300 1050 2328 
Q 1050 1359 1267 884 
Q 1484 409 1925 409 
Q 2369 409 2586 884 
Q 2803 1359 2803 2328 
Q 2803 3300 2586 3775 
Q 2369 4250 1925 4250 
z
M 1925 4750 
Q 2672 4750 3055 4137 
Q 3438 3525 3438 2328 
Q 3438 1134 3055 521 
Q 2672 -91 1925 -91 
Q 1178 -91 797 521 
Q 416 1134 416 2328 
Q 416 3525 797 4137 
Q 1178 4750 1925 4750 
z
" transform="scale(0.015625)"/>
        <path id="DejaVuSansMono-2e" d="M 1528 953 
L 2316 953 
L 2316 0 
L 1528 0 
L 1528 953 
z
" transform="scale(0.015625)"/>
        <path id="DejaVuSansMono-35" d="M 647 4666 
L 3009 4666 
L 3009 4134 
L 1222 4134 
L 1222 2988 
Q 1356 3038 1492 3061 
Q 1628 3084 1766 3084 
Q 2491 3084 2916 2656 
Q 3341 2228 3341 1497 
Q 3341 759 2895 334 
Q 2450 -91 1678 -91 
Q 1306 -91 998 -41 
Q 691 9 447 109 
L 447 750 
Q 734 594 1025 517 
Q 1316 441 1619 441 
Q 2141 441 2423 716 
Q 2706 991 2706 1497 
Q 2706 1997 2414 2275 
Q 2122 2553 1600 2553 
Q 1347 2553 1106 2495 
Q 866 2438 647 2322 
L 647 4666 
z
" transform="scale(0.015625)"/>
       </defs>
       <use xlink:href="#DejaVuSansMono-73"/>
       <use xlink:href="#DejaVuSansMono-71" x="60.205078"/>
       <use xlink:href="#DejaVuSansMono-6c" x="120.410156"/>
       <use xlink:href="#DejaVuSansMono-78" x="180.615234"/>
       <use xlink:href="#DejaVuSansMono-2d" x="240.820312"/>
       <use xlink:href="#DejaVuSansMono-76" x="301.025391"/>
       <use xlink:href="#DejaVuSansMono-30" x="361.230469"/>
       <use xlink:href="#DejaVuSansMono-2e" x="421.435547"/>
       <use xlink:href="#DejaVuSansMono-35" x="481.640625"/>
      </g>
     </g>
    </g>
    <g id="ytick_2">
     <g id="line2d_2">
      <g>
       <use xlink:href="#mcf641f0795" x="155.187188" y="253.609577" style="fill: #676466; stroke: #676466; stroke-width: 0.8"/>
      </g>
     </g>
     <g id="text_2">
      <!-- r2d2-postgres-v0.18 -->
      <g style="fill: #2d282e" transform="translate(33.80125 257.408796)scale(0.1 -0.1)">
       <defs>
        <path id="DejaVuSansMono-72" d="M 3609 2778 
Q 3425 2922 3234 2987 
Q 3044 3053 2816 3053 
Q 2278 3053 1993 2715 
Q 1709 2378 1709 1741 
L 1709 0 
L 1131 0 
L 1131 3500 
L 1709 3500 
L 1709 2816 
Q 1853 3188 2151 3386 
Q 2450 3584 2859 3584 
Q 3072 3584 3256 3531 
Q 3441 3478 3609 3366 
L 3609 2778 
z
" transform="scale(0.015625)"/>
        <path id="DejaVuSansMono-32" d="M 1166 531 
L 3309 531 
L 3309 0 
L 475 0 
L 475 531 
Q 1059 1147 1496 1619 
Q 1934 2091 2100 2284 
Q 2413 2666 2522 2902 
Q 2631 3138 2631 3384 
Q 2631 3775 2401 3997 
Q 2172 4219 1772 4219 
Q 1488 4219 1175 4116 
Q 863 4013 513 3803 
L 513 4441 
Q 834 4594 1145 4672 
Q 1456 4750 1759 4750 
Q 2444 4750 2861 4386 
Q 3278 4022 3278 3431 
Q 3278 3131 3139 2831 
Q 3000 2531 2688 2169 
Q 2513 1966 2180 1606 
Q 1847 1247 1166 531 
z
" transform="scale(0.015625)"/>
        <path id="DejaVuSansMono-64" d="M 2681 3053 
L 2681 4863 
L 3256 4863 
L 3256 0 
L 2681 0 
L 2681 441 
Q 2538 181 2298 45 
Q 2059 -91 1747 -91 
Q 1113 -91 748 401 
Q 384 894 384 1759 
Q 384 2613 750 3098 
Q 1116 3584 1747 3584 
Q 2063 3584 2303 3448 
Q 2544 3313 2681 3053 
z
M 991 1747 
Q 991 1078 1203 737 
Q 1416 397 1831 397 
Q 2247 397 2464 740 
Q 2681 1084 2681 1747 
Q 2681 2413 2464 2755 
Q 2247 3097 1831 3097 
Q 1416 3097 1203 2756 
Q 991 2416 991 1747 
z
" transform="scale(0.015625)"/>
        <path id="DejaVuSansMono-70" d="M 1172 441 
L 1172 -1331 
L 594 -1331 
L 594 3500 
L 1172 3500 
L 1172 3053 
Q 1316 3313 1555 3448 
Q 1794 3584 2106 3584 
Q 2741 3584 3102 3093 
Q 3463 2603 3463 1734 
Q 3463 881 3100 395 
Q 2738 -91 2106 -91 
Q 1788 -91 1548 45 
Q 1309 181 1172 441 
z
M 2859 1747 
Q 2859 2416 2648 2756 
Q 2438 3097 2022 3097 
Q 1603 3097 1387 2755 
Q 1172 2413 1172 1747 
Q 1172 1084 1387 740 
Q 1603 397 2022 397 
Q 2438 397 2648 737 
Q 2859 1078 2859 1747 
z
" transform="scale(0.015625)"/>
        <path id="DejaVuSansMono-6f" d="M 1925 3097 
Q 1488 3097 1263 2756 
Q 1038 2416 1038 1747 
Q 1038 1081 1263 739 
Q 1488 397 1925 397 
Q 2366 397 2591 739 
Q 2816 1081 2816 1747 
Q 2816 2416 2591 2756 
Q 2366 3097 1925 3097 
z
M 1925 3584 
Q 2653 3584 3039 3112 
Q 3425 2641 3425 1747 
Q 3425 850 3040 379 
Q 2656 -91 1925 -91 
Q 1197 -91 812 379 
Q 428 850 428 1747 
Q 428 2641 812 3112 
Q 1197 3584 1925 3584 
z
" transform="scale(0.015625)"/>
        <path id="DejaVuSansMono-74" d="M 1919 4494 
L 1919 3500 
L 3225 3500 
L 3225 3053 
L 1919 3053 
L 1919 1153 
Q 1919 766 2066 612 
Q 2213 459 2578 459 
L 3225 459 
L 3225 0 
L 2522 0 
Q 1875 0 1609 259 
Q 1344 519 1344 1153 
L 1344 3053 
L 409 3053 
L 409 3500 
L 1344 3500 
L 1344 4494 
L 1919 4494 
z
" transform="scale(0.015625)"/>
        <path id="DejaVuSansMono-67" d="M 2681 1778 
Q 2681 2425 2470 2761 
Q 2259 3097 1856 3097 
Q 1434 3097 1212 2761 
Q 991 2425 991 1778 
Q 991 1131 1214 792 
Q 1438 453 1863 453 
Q 2259 453 2470 793 
Q 2681 1134 2681 1778 
z
M 3256 225 
Q 3256 -563 2884 -969 
Q 2513 -1375 1791 -1375 
Q 1553 -1375 1293 -1331 
Q 1034 -1288 775 -1203 
L 775 -634 
Q 1081 -778 1331 -847 
Q 1581 -916 1791 -916 
Q 2256 -916 2468 -662 
Q 2681 -409 2681 141 
L 2681 166 
L 2681 556 
Q 2544 263 2306 119 
Q 2069 -25 1728 -25 
Q 1116 -25 750 465 
Q 384 956 384 1778 
Q 384 2603 750 3093 
Q 1116 3584 1728 3584 
Q 2066 3584 2300 3450 
Q 2534 3316 2681 3034 
L 2681 3488 
L 3256 3488 
L 3256 225 
z
" transform="scale(0.015625)"/>
        <path id="DejaVuSansMono-65" d="M 3475 1894 
L 3475 1613 
L 984 1613 
L 984 1594 
Q 984 1022 1282 709 
Q 1581 397 2125 397 
Q 2400 397 2700 484 
Q 3000 572 3341 750 
L 3341 178 
Q 3013 44 2708 -23 
Q 2403 -91 2119 -91 
Q 1303 -91 843 398 
Q 384 888 384 1747 
Q 384 2584 834 3084 
Q 1284 3584 2034 3584 
Q 2703 3584 3089 3131 
Q 3475 2678 3475 1894 
z
M 2900 2063 
Q 2888 2569 2661 2833 
Q 2434 3097 2009 3097 
Q 1594 3097 1325 2822 
Q 1056 2547 1006 2059 
L 2900 2063 
z
" transform="scale(0.015625)"/>
        <path id="DejaVuSansMono-31" d="M 844 531 
L 1825 531 
L 1825 4097 
L 769 3859 
L 769 4434 
L 1819 4666 
L 2450 4666 
L 2450 531 
L 3419 531 
L 3419 0 
L 844 0 
L 844 531 
z
" transform="scale(0.015625)"/>
        <path id="DejaVuSansMono-38" d="M 1925 2216 
Q 1503 2216 1273 1980 
Q 1044 1744 1044 1313 
Q 1044 881 1276 642 
Q 1509 403 1925 403 
Q 2350 403 2579 639 
Q 2809 875 2809 1313 
Q 2809 1741 2576 1978 
Q 2344 2216 1925 2216 
z
M 1375 2478 
Q 972 2581 745 2862 
Q 519 3144 519 3541 
Q 519 4097 897 4423 
Q 1275 4750 1925 4750 
Q 2578 4750 2956 4423 
Q 3334 4097 3334 3541 
Q 3334 3144 3107 2862 
Q 2881 2581 2478 2478 
Q 2947 2375 3195 2062 
Q 3444 1750 3444 1253 
Q 3444 622 3041 265 
Q 2638 -91 1925 -91 
Q 1213 -91 811 264 
Q 409 619 409 1247 
Q 409 1747 657 2061 
Q 906 2375 1375 2478 
z
M 1147 3481 
Q 1147 3106 1347 2909 
Q 1547 2713 1925 2713 
Q 2306 2713 2506 2909 
Q 2706 3106 2706 3481 
Q 2706 3863 2507 4063 
Q 2309 4263 1925 4263 
Q 1547 4263 1347 4061 
Q 1147 3859 1147 3481 
z
" transform="scale(0.015625)"/>
       </defs>
       <use xlink:href="#DejaVuSansMono-72"/>
       <use xlink:href="#DejaVuSansMono-32" x="60.205078"/>
       <use xlink:href="#DejaVuSansMono-64" x="120.410156"/>
       <use xlink:href="#DejaVuSansMono-32" x="180.615234"/>
       <use xlink:href="#DejaVuSansMono-2d" x="240.820312"/>
       <use xlink:href="#DejaVuSansMono-70" x="301.025391"/>
       <use xlink:href="#DejaVuSansMono-6f" x="361.230469"/>
       <use xlink:href="#DejaVuSansMono-73" x="421.435547"/>
       <use xlink:href="#DejaVuSansMono-74" x="481.640625"/>
       <use xlink:href="#DejaVuSansMono-67" x="541.845703"/>
       <use xlink:href="#DejaVuSansMono-72" x="602.050781"/>
       <use xlink:href="#DejaVuSansMono-65" x="662.255859"/>
       <use xlink:href="#DejaVuSansMono-73" x="722.460938"/>
       <use xlink:href="#DejaVuSansMono-2d" x="782.666016"/>
       <use xlink:href="#DejaVuSansMono-76" x="842.871094"/>
       <use xlink:href="#DejaVuSansMono-30" x="903.076172"/>
       <use xlink:href="#DejaVuSansMono-2e" x="963.28125"/>
       <use xlink:href="#DejaVuSansMono-31" x="1023.486328"/>
       <use xlink:href="#DejaVuSansMono-38" x="1083.691406"/>
      </g>
     </g>
    </g>
    <g id="ytick_3">
     <g id="line2d_3">
      <g>
       <use xlink:href="#mcf641f0795" x="155.187188" y="206.999859" style="fill: #676466; stroke: #676466; stroke-width: 0.8"/>
      </g>
     </g>
     <g id="text_3">
      <!-- qp-postgres-v0.1 -->
      <g style="fill: #2d282e" transform="translate(51.862188 210.791265)scale(0.1 -0.1)">
       <use xlink:href="#DejaVuSansMono-71"/>
       <use xlink:href="#DejaVuSansMono-70" x="60.205078"/>
       <use xlink:href="#DejaVuSansMono-2d" x="120.410156"/>
       <use xlink:href="#DejaVuSansMono-70" x="180.615234"/>
       <use xlink:href="#DejaVuSansMono-6f" x="240.820312"/>
       <use xlink:href="#DejaVuSansMono-73" x="301.025391"/>
       <use xlink:href="#DejaVuSansMono-74" x="361.230469"/>
       <use xlink:href="#DejaVuSansMono-67" x="421.435547"/>
       <use xlink:href="#DejaVuSansMono-72" x="481.640625"/>
       <use xlink:href="#DejaVuSansMono-65" x="541.845703"/>
       <use xlink:href="#DejaVuSansMono-73" x="602.050781"/>
       <use xlink:href="#DejaVuSansMono-2d" x="662.255859"/>
       <use xlink:href="#DejaVuSansMono-76" x="722.460938"/>
       <use xlink:href="#DejaVuSansMono-30" x="782.666016"/>
       <use xlink:href="#DejaVuSansMono-2e" x="842.871094"/>
       <use xlink:href="#DejaVuSansMono-31" x="903.076172"/>
      </g>
     </g>
    </g>
    <g id="ytick_4">
     <g id="line2d_4">
      <g>
       <use xlink:href="#mcf641f0795" x="155.187188" y="160.390141" style="fill: #676466; stroke: #676466; stroke-width: 0.8"/>
      </g>
     </g>
     <g id="text_4">
      <!-- mobc-postgres-v0.7 -->
      <g style="fill: #2d282e" transform="translate(39.821563 164.18936)scale(0.1 -0.1)">
       <defs>
        <path id="DejaVuSansMono-6d" d="M 2113 3144 
Q 2219 3369 2383 3476 
Q 2547 3584 2778 3584 
Q 3200 3584 3373 3257 
Q 3547 2931 3547 2028 
L 3547 0 
L 3022 0 
L 3022 2003 
Q 3022 2744 2939 2923 
Q 2856 3103 2638 3103 
Q 2388 3103 2295 2911 
Q 2203 2719 2203 2003 
L 2203 0 
L 1678 0 
L 1678 2003 
Q 1678 2753 1589 2928 
Q 1500 3103 1269 3103 
Q 1041 3103 952 2911 
Q 863 2719 863 2003 
L 863 0 
L 341 0 
L 341 3500 
L 863 3500 
L 863 3200 
Q 966 3388 1120 3486 
Q 1275 3584 1472 3584 
Q 1709 3584 1867 3475 
Q 2025 3366 2113 3144 
z
" transform="scale(0.015625)"/>
        <path id="DejaVuSansMono-62" d="M 2869 1747 
Q 2869 2416 2656 2756 
Q 2444 3097 2028 3097 
Q 1609 3097 1393 2755 
Q 1178 2413 1178 1747 
Q 1178 1084 1393 740 
Q 1609 397 2028 397 
Q 2444 397 2656 737 
Q 2869 1078 2869 1747 
z
M 1178 3053 
Q 1316 3309 1558 3446 
Q 1800 3584 2119 3584 
Q 2750 3584 3112 3098 
Q 3475 2613 3475 1759 
Q 3475 894 3111 401 
Q 2747 -91 2113 -91 
Q 1800 -91 1561 45 
Q 1322 181 1178 441 
L 1178 0 
L 603 0 
L 603 4863 
L 1178 4863 
L 1178 3053 
z
" transform="scale(0.015625)"/>
        <path id="DejaVuSansMono-63" d="M 3316 178 
Q 3084 44 2839 -23 
Q 2594 -91 2338 -91 
Q 1525 -91 1067 396 
Q 609 884 609 1747 
Q 609 2609 1067 3096 
Q 1525 3584 2338 3584 
Q 2591 3584 2831 3518 
Q 3072 3453 3316 3316 
L 3316 2713 
Q 3088 2916 2858 3006 
Q 2628 3097 2338 3097 
Q 1797 3097 1506 2747 
Q 1216 2397 1216 1747 
Q 1216 1100 1508 748 
Q 1800 397 2338 397 
Q 2638 397 2875 489 
Q 3113 581 3316 775 
L 3316 178 
z
" transform="scale(0.015625)"/>
        <path id="DejaVuSansMono-37" d="M 434 4666 
L 3372 4666 
L 3372 4397 
L 1703 0 
L 1044 0 
L 2669 4134 
L 434 4134 
L 434 4666 
z
" transform="scale(0.015625)"/>
       </defs>
       <use xlink:href="#DejaVuSansMono-6d"/>
       <use xlink:href="#DejaVuSansMono-6f" x="60.205078"/>
       <use xlink:href="#DejaVuSansMono-62" x="120.410156"/>
       <use xlink:href="#DejaVuSansMono-63" x="180.615234"/>
       <use xlink:href="#DejaVuSansMono-2d" x="240.820312"/>
       <use xlink:href="#DejaVuSansMono-70" x="301.025391"/>
       <use xlink:href="#DejaVuSansMono-6f" x="361.230469"/>
       <use xlink:href="#DejaVuSansMono-73" x="421.435547"/>
       <use xlink:href="#DejaVuSansMono-74" x="481.640625"/>
       <use xlink:href="#DejaVuSansMono-67" x="541.845703"/>
       <use xlink:href="#DejaVuSansMono-72" x="602.050781"/>
       <use xlink:href="#DejaVuSansMono-65" x="662.255859"/>
       <use xlink:href="#DejaVuSansMono-73" x="722.460938"/>
       <use xlink:href="#DejaVuSansMono-2d" x="782.666016"/>
       <use xlink:href="#DejaVuSansMono-76" x="842.871094"/>
       <use xlink:href="#DejaVuSansMono-30" x="903.076172"/>
       <use xlink:href="#DejaVuSansMono-2e" x="963.28125"/>
       <use xlink:href="#DejaVuSansMono-37" x="1023.486328"/>
      </g>
     </g>
    </g>
    <g id="ytick_5">
     <g id="line2d_5">
      <g>
       <use xlink:href="#mcf641f0795" x="155.187188" y="113.780423" style="fill: #676466; stroke: #676466; stroke-width: 0.8"/>
      </g>
     </g>
     <g id="text_5">
      <!-- deadpool-postgres-v0.10 -->
      <g style="fill: #2d282e" transform="translate(9.72 117.606204)scale(0.1 -0.1)">
       <defs>
        <path id="DejaVuSansMono-61" d="M 2194 1759 
L 2003 1759 
Q 1500 1759 1245 1582 
Q 991 1406 991 1056 
Q 991 741 1181 566 
Q 1372 391 1709 391 
Q 2184 391 2456 720 
Q 2728 1050 2731 1631 
L 2731 1759 
L 2194 1759 
z
M 3309 1997 
L 3309 0 
L 2731 0 
L 2731 519 
Q 2547 206 2267 57 
Q 1988 -91 1588 -91 
Q 1053 -91 734 211 
Q 416 513 416 1019 
Q 416 1603 808 1906 
Q 1200 2209 1959 2209 
L 2731 2209 
L 2731 2300 
Q 2728 2719 2518 2908 
Q 2309 3097 1850 3097 
Q 1556 3097 1256 3012 
Q 956 2928 672 2766 
L 672 3341 
Q 991 3463 1283 3523 
Q 1575 3584 1850 3584 
Q 2284 3584 2592 3456 
Q 2900 3328 3091 3072 
Q 3209 2916 3259 2686 
Q 3309 2456 3309 1997 
z
" transform="scale(0.015625)"/>
       </defs>
       <use xlink:href="#DejaVuSansMono-64"/>
       <use xlink:href="#DejaVuSansMono-65" x="60.205078"/>
       <use xlink:href="#DejaVuSansMono-61" x="120.410156"/>
       <use xlink:href="#DejaVuSansMono-64" x="180.615234"/>
       <use xlink:href="#DejaVuSansMono-70" x="240.820312"/>
       <use xlink:href="#DejaVuSansMono-6f" x="301.025391"/>
       <use xlink:href="#DejaVuSansMono-6f" x="361.230469"/>
       <use xlink:href="#DejaVuSansMono-6c" x="421.435547"/>
       <use xlink:href="#DejaVuSansMono-2d" x="481.640625"/>
       <use xlink:href="#DejaVuSansMono-70" x="541.845703"/>
       <use xlink:href="#DejaVuSansMono-6f" x="602.050781"/>
       <use xlink:href="#DejaVuSansMono-73" x="662.255859"/>
       <use xlink:href="#DejaVuSansMono-74" x="722.460938"/>
       <use xlink:href="#DejaVuSansMono-67" x="782.666016"/>
       <use xlink:href="#DejaVuSansMono-72" x="842.871094"/>
       <use xlink:href="#DejaVuSansMono-65" x="903.076172"/>
       <use xlink:href="#DejaVuSansMono-73" x="963.28125"/>
       <use xlink:href="#DejaVuSansMono-2d" x="1023.486328"/>
       <use xlink:href="#DejaVuSansMono-76" x="1083.691406"/>
       <use xlink:href="#DejaVuSansMono-30" x="1143.896484"/>
       <use xlink:href="#DejaVuSansMono-2e" x="1204.101562"/>
       <use xlink:href="#DejaVuSansMono-31" x="1264.306641"/>
       <use xlink:href="#DejaVuSansMono-30" x="1324.511719"/>
      </g>
     </g>
    </g>
    <g id="ytick_6">
     <g id="line2d_6">
      <g>
       <use xlink:href="#mcf641f0795" x="155.187188" y="67.170705" style="fill: #676466; stroke: #676466; stroke-width: 0.8"/>
      </g>
     </g>
     <g id="text_6">
      <!-- bb8-postgres-v0.7 -->
      <g style="fill: #2d282e" transform="translate(45.841875 70.969924)scale(0.1 -0.1)">
       <use xlink:href="#DejaVuSansMono-62"/>
       <use xlink:href="#DejaVuSansMono-62" x="60.205078"/>
       <use xlink:href="#DejaVuSansMono-38" x="120.410156"/>
       <use xlink:href="#DejaVuSansMono-2d" x="180.615234"/>
       <use xlink:href="#DejaVuSansMono-70" x="240.820312"/>
       <use xlink:href="#DejaVuSansMono-6f" x="301.025391"/>
       <use xlink:href="#DejaVuSansMono-73" x="361.230469"/>
       <use xlink:href="#DejaVuSansMono-74" x="421.435547"/>
       <use xlink:href="#DejaVuSansMono-67" x="481.640625"/>
       <use xlink:href="#DejaVuSansMono-72" x="541.845703"/>
       <use xlink:href="#DejaVuSansMono-65" x="602.050781"/>
       <use xlink:href="#DejaVuSansMono-73" x="662.255859"/>
       <use xlink:href="#DejaVuSansMono-2d" x="722.460938"/>
       <use xlink:href="#DejaVuSansMono-76" x="782.666016"/>
       <use xlink:href="#DejaVuSansMono-30" x="842.871094"/>
       <use xlink:href="#DejaVuSansMono-2e" x="903.076172"/>
       <use xlink:href="#DejaVuSansMono-37" x="963.28125"/>
      </g>
     </g>
    </g>
   </g>
   <g id="patch_9">
    <path d="M 155.187188 332.38 
L 155.187188 35.01 
" style="fill: none; stroke: #676466; stroke-width: 0.8; stroke-linejoin: miter; stroke-linecap: square"/>
   </g>
   <g id="patch_10">
    <path d="M 155.187188 332.38 
L 298.273594 332.38 
" style="fill: none; stroke: #676466; stroke-width: 0.8; stroke-linejoin: miter; stroke-linecap: square"/>
   </g>
   <g id="patch_11">
    <path d="M 155.187188 35.01 
L 298.273594 35.01 
" style="fill: none; stroke: #676466; stroke-width: 0.8; stroke-linejoin: miter; stroke-linecap: square"/>
   </g>
   <g id="text_7">
    <!--  9ms  -->
    <g style="fill: #ffffff" transform="translate(252.842989 302.726638)scale(0.09 -0.09)">
     <defs>
      <path id="DejaVuSansMono-20" transform="scale(0.015625)"/>
      <path id="DejaVuSansMono-39" d="M 1863 2069 
Q 2266 2069 2495 2359 
Q 2725 2650 2725 3163 
Q 2725 3675 2495 3965 
Q 2266 4256 1863 4256 
Q 1444 4256 1231 3979 
Q 1019 3703 1019 3163 
Q 1019 2619 1230 2344 
Q 1441 2069 1863 2069 
z
M 738 97 
L 738 678 
Q 934 563 1156 502 
Q 1378 441 1619 441 
Q 2219 441 2526 892 
Q 2834 1344 2834 2222 
Q 2688 1909 2422 1742 
Q 2156 1575 1813 1575 
Q 1138 1575 767 1990 
Q 397 2406 397 3169 
Q 397 3922 776 4336 
Q 1156 4750 1850 4750 
Q 2663 4750 3041 4165 
Q 3419 3581 3419 2328 
Q 3419 1150 2964 529 
Q 2509 -91 1644 -91 
Q 1416 -91 1184 -42 
Q 953 6 738 97 
z
" transform="scale(0.015625)"/>
     </defs>
     <use xlink:href="#DejaVuSansMono-20"/>
     <use xlink:href="#DejaVuSansMono-39" x="60.205078"/>
     <use xlink:href="#DejaVuSansMono-6d" x="120.410156"/>
     <use xlink:href="#DejaVuSansMono-73" x="180.615234"/>
     <use xlink:href="#DejaVuSansMono-20" x="240.820312"/>
    </g>
   </g>
   <g id="text_8">
    <!--  7ms  -->
    <g style="fill: #ffffff" transform="translate(223.171653 209.507203)scale(0.09 -0.09)">
     <use xlink:href="#DejaVuSansMono-20"/>
     <use xlink:href="#DejaVuSansMono-37" x="60.205078"/>
     <use xlink:href="#DejaVuSansMono-6d" x="120.410156"/>
     <use xlink:href="#DejaVuSansMono-73" x="180.615234"/>
     <use xlink:href="#DejaVuSansMono-20" x="240.820312"/>
    </g>
   </g>
   <g id="text_9">
    <!--  8ms  -->
    <g style="fill: #ffffff" transform="translate(245.573889 116.287767)scale(0.09 -0.09)">
     <use xlink:href="#DejaVuSansMono-20"/>
     <use xlink:href="#DejaVuSansMono-38" x="60.205078"/>
     <use xlink:href="#DejaVuSansMono-6d" x="120.410156"/>
     <use xlink:href="#DejaVuSansMono-73" x="180.615234"/>
     <use xlink:href="#DejaVuSansMono-20" x="240.820312"/>
    </g>
   </g>
   <g id="text_10">
    <!--  9ms  -->
    <g style="fill: #ffffff" transform="translate(258.174332 69.678049)scale(0.09 -0.09)">
     <use xlink:href="#DejaVuSansMono-20"/>
     <use xlink:href="#DejaVuSansMono-39" x="60.205078"/>
     <use xlink:href="#DejaVuSansMono-6d" x="120.410156"/>
     <use xlink:href="#DejaVuSansMono-73" x="180.615234"/>
     <use xlink:href="#DejaVuSansMono-20" x="240.820312"/>
    </g>
   </g>
  </g>
  <g id="axes_2">
   <g id="patch_12">
    <path d="M 307.993594 332.38 
L 451.08 332.38 
L 451.08 35.01 
L 307.993594 35.01 
z
" style="fill: #f5f4f3"/>
   </g>
   <g id="patch_13">
    <path d="M 112.888028 318.863182 
L 184.721727 318.863182 
L 184.721727 281.575408 
L 112.888028 281.575408 
z
" clip-path="url(#pa42a0e67a3)" style="fill: #6768ab"/>
   </g>
   <g id="patch_14">
    <path d="M 112.888028 272.253464 
L 338.738318 272.253464 
L 338.738318 234.96569 
L 112.888028 234.96569 
z
" clip-path="url(#pa42a0e67a3)" style="fill: #6768ab"/>
   </g>
   <g id="patch_15">
    <path d="M 112.888028 225.643746 
L 167.635959 225.643746 
L 167.635959 188.355972 
L 112.888028 188.355972 
z
" clip-path="url(#pa42a0e67a3)" style="fill: #6768ab"/>
   </g>
   <g id="patch_16">
    <path d="M 112.888028 179.034028 
L 420.335275 179.034028 
L 420.335275 141.746254 
L 112.888028 141.746254 
z
" clip-path="url(#pa42a0e67a3)" style="fill: #6768ab"/>
   </g>
   <g id="patch_17">
    <path d="M 112.888028 132.42431 
L 180.535931 132.42431 
L 180.535931 95.136536 
L 112.888028 95.136536 
z
" clip-path="url(#pa42a0e67a3)" style="fill: #6768ab"/>
   </g>
   <g id="patch_18">
    <path d="M 112.888028 85.814592 
L 187.791696 85.814592 
L 187.791696 48.526818 
L 112.888028 48.526818 
z
" clip-path="url(#pa42a0e67a3)" style="fill: #6768ab"/>
   </g>
   <g id="matplotlib.axis_2">
    <g id="ytick_7"/>
    <g id="ytick_8"/>
    <g id="ytick_9"/>
    <g id="ytick_10"/>
    <g id="ytick_11"/>
    <g id="ytick_12"/>
   </g>
   <g id="patch_19">
    <path d="M 451.08 332.38 
L 451.08 35.01 
" style="fill: none; stroke: #676466; stroke-width: 0.8; stroke-linejoin: miter; stroke-linecap: square"/>
   </g>
   <g id="patch_20">
    <path d="M 307.993594 332.38 
L 451.08 332.38 
" style="fill: none; stroke: #676466; stroke-width: 0.8; stroke-linejoin: miter; stroke-linecap: square"/>
   </g>
   <g id="patch_21">
    <path d="M 307.993594 35.01 
L 451.08 35.01 
" style="fill: none; stroke: #676466; stroke-width: 0.8; stroke-linejoin: miter; stroke-linecap: square"/>
   </g>
   <g id="text_11">
    <!--  29ms  -->
    <g style="fill: #2d282e" transform="translate(338.738318 256.116921)scale(0.09 -0.09)">
     <use xlink:href="#DejaVuSansMono-20"/>
     <use xlink:href="#DejaVuSansMono-32" x="60.205078"/>
     <use xlink:href="#DejaVuSansMono-39" x="120.410156"/>
     <use xlink:href="#DejaVuSansMono-6d" x="180.615234"/>
     <use xlink:href="#DejaVuSansMono-73" x="240.820312"/>
     <use xlink:href="#DejaVuSansMono-20" x="301.025391"/>
    </g>
   </g>
   <g id="text_12">
    <!--  40ms  -->
    <g style="fill: #2d282e" transform="translate(420.335275 162.897485)scale(0.09 -0.09)">
     <defs>
      <path id="DejaVuSansMono-34" d="M 2297 4091 
L 825 1625 
L 2297 1625 
L 2297 4091 
z
M 2194 4666 
L 2925 4666 
L 2925 1625 
L 3547 1625 
L 3547 1113 
L 2925 1113 
L 2925 0 
L 2297 0 
L 2297 1113 
L 319 1113 
L 319 1709 
L 2194 4666 
z
" transform="scale(0.015625)"/>
     </defs>
     <use xlink:href="#DejaVuSansMono-20"/>
     <use xlink:href="#DejaVuSansMono-34" x="60.205078"/>
     <use xlink:href="#DejaVuSansMono-30" x="120.410156"/>
     <use xlink:href="#DejaVuSansMono-6d" x="180.615234"/>
     <use xlink:href="#DejaVuSansMono-73" x="240.820312"/>
     <use xlink:href="#DejaVuSansMono-20" x="301.025391"/>
    </g>
   </g>
  </g>
  <g id="text_13">
   <!-- Benchmark (pool=4, workers=4) -->
   <g style="fill: #2d282e" transform="translate(90.72875 19.1545)scale(0.16 -0.16)">
    <defs>
     <path id="DejaVuSansMono-42" d="M 1153 2228 
L 1153 519 
L 1900 519 
Q 2450 519 2684 711 
Q 2919 903 2919 1344 
Q 2919 1800 2672 2014 
Q 2425 2228 1900 2228 
L 1153 2228 
z
M 1153 4147 
L 1153 2741 
L 1888 2741 
Q 2344 2741 2548 2916 
Q 2753 3091 2753 3481 
Q 2753 3834 2551 3990 
Q 2350 4147 1888 4147 
L 1153 4147 
z
M 519 4666 
L 1900 4666 
Q 2616 4666 3003 4356 
Q 3391 4047 3391 3481 
Q 3391 3053 3186 2806 
Q 2981 2559 2572 2497 
Q 3031 2428 3292 2104 
Q 3553 1781 3553 1281 
Q 3553 647 3137 323 
Q 2722 0 1900 0 
L 519 0 
L 519 4666 
z
" transform="scale(0.015625)"/>
     <path id="DejaVuSansMono-6e" d="M 3284 2169 
L 3284 0 
L 2706 0 
L 2706 2169 
Q 2706 2641 2540 2862 
Q 2375 3084 2022 3084 
Q 1619 3084 1401 2798 
Q 1184 2513 1184 1978 
L 1184 0 
L 609 0 
L 609 3500 
L 1184 3500 
L 1184 2975 
Q 1338 3275 1600 3429 
Q 1863 3584 2222 3584 
Q 2756 3584 3020 3232 
Q 3284 2881 3284 2169 
z
" transform="scale(0.015625)"/>
     <path id="DejaVuSansMono-68" d="M 3284 2169 
L 3284 0 
L 2706 0 
L 2706 2169 
Q 2706 2641 2540 2862 
Q 2375 3084 2022 3084 
Q 1619 3084 1401 2798 
Q 1184 2513 1184 1978 
L 1184 0 
L 609 0 
L 609 4863 
L 1184 4863 
L 1184 2975 
Q 1338 3275 1600 3429 
Q 1863 3584 2222 3584 
Q 2756 3584 3020 3232 
Q 3284 2881 3284 2169 
z
" transform="scale(0.015625)"/>
     <path id="DejaVuSansMono-6b" d="M 738 4863 
L 1331 4863 
L 1331 2047 
L 2841 3500 
L 3541 3500 
L 2163 2181 
L 3756 0 
L 3053 0 
L 1759 1806 
L 1331 1403 
L 1331 0 
L 738 0 
L 738 4863 
z
" transform="scale(0.015625)"/>
     <path id="DejaVuSansMono-28" d="M 2766 4856 
Q 2350 4144 2145 3436 
Q 1941 2728 1941 2009 
Q 1941 1294 2145 584 
Q 2350 -125 2766 -844 
L 2266 -844 
Q 1794 -100 1562 604 
Q 1331 1309 1331 2009 
Q 1331 2706 1562 3412 
Q 1794 4119 2266 4856 
L 2766 4856 
z
" transform="scale(0.015625)"/>
     <path id="DejaVuSansMono-3d" d="M 275 1638 
L 3578 1638 
L 3578 1100 
L 275 1100 
L 275 1638 
z
M 275 2906 
L 3578 2906 
L 3578 2375 
L 275 2375 
L 275 2906 
z
" transform="scale(0.015625)"/>
     <path id="DejaVuSansMono-2c" d="M 1569 947 
L 2356 947 
L 2356 300 
L 1741 -897 
L 1259 -897 
L 1569 300 
L 1569 947 
z
" transform="scale(0.015625)"/>
     <path id="DejaVuSansMono-77" d="M 0 3500 
L 569 3500 
L 1178 672 
L 1678 2478 
L 2169 2478 
L 2675 672 
L 3284 3500 
L 3853 3500 
L 3034 0 
L 2484 0 
L 1925 1919 
L 1369 0 
L 819 0 
L 0 3500 
z
" transform="scale(0.015625)"/>
     <path id="DejaVuSansMono-29" d="M 1088 4856 
L 1588 4856 
Q 2059 4119 2290 3412 
Q 2522 2706 2522 2009 
Q 2522 1306 2290 600 
Q 2059 -106 1588 -844 
L 1088 -844 
Q 1503 -119 1708 590 
Q 1913 1300 1913 2009 
Q 1913 2722 1708 3431 
Q 1503 4141 1088 4856 
z
" transform="scale(0.015625)"/>
    </defs>
    <use xlink:href="#DejaVuSansMono-42"/>
    <use xlink:href="#DejaVuSansMono-65" x="60.205078"/>
    <use xlink:href="#DejaVuSansMono-6e" x="120.410156"/>
    <use xlink:href="#DejaVuSansMono-63" x="180.615234"/>
    <use xlink:href="#DejaVuSansMono-68" x="240.820312"/>
    <use xlink:href="#DejaVuSansMono-6d" x="301.025391"/>
    <use xlink:href="#DejaVuSansMono-61" x="361.230469"/>
    <use xlink:href="#DejaVuSansMono-72" x="421.435547"/>
    <use xlink:href="#DejaVuSansMono-6b" x="481.640625"/>
    <use xlink:href="#DejaVuSansMono-20" x="541.845703"/>
    <use xlink:href="#DejaVuSansMono-28" x="602.050781"/>
    <use xlink:href="#DejaVuSansMono-70" x="662.255859"/>
    <use xlink:href="#DejaVuSansMono-6f" x="722.460938"/>
    <use xlink:href="#DejaVuSansMono-6f" x="782.666016"/>
    <use xlink:href="#DejaVuSansMono-6c" x="842.871094"/>
    <use xlink:href="#DejaVuSansMono-3d" x="903.076172"/>
    <use xlink:href="#DejaVuSansMono-34" x="963.28125"/>
    <use xlink:href="#DejaVuSansMono-2c" x="1023.486328"/>
    <use xlink:href="#DejaVuSansMono-20" x="1083.691406"/>
    <use xlink:href="#DejaVuSansMono-77" x="1143.896484"/>
    <use xlink:href="#DejaVuSansMono-6f" x="1204.101562"/>
    <use xlink:href="#DejaVuSansMono-72" x="1264.306641"/>
    <use xlink:href="#DejaVuSansMono-6b" x="1324.511719"/>
    <use xlink:href="#DejaVuSansMono-65" x="1384.716797"/>
    <use xlink:href="#DejaVuSansMono-72" x="1444.921875"/>
    <use xlink:href="#DejaVuSansMono-73" x="1505.126953"/>
    <use xlink:href="#DejaVuSansMono-3d" x="1565.332031"/>
    <use xlink:href="#DejaVuSansMono-34" x="1625.537109"/>
    <use xlink:href="#DejaVuSansMono-29" x="1685.742188"/>
   </g>
  </g>
 </g>
 <defs>
  <clipPath id="p75c6e6bb79">
   <rect x="155.187188" y="35.01" width="143.086406" height="297.37"/>
  </clipPath>
  <clipPath id="pa42a0e67a3">
   <rect x="307.993594" y="35.01" width="143.086406" height="297.37"/>
  </clipPath>
 </defs>
</svg>
