<?xml version="1.0" encoding="utf-8" standalone="no"?>
<!DOCTYPE svg PUBLIC "-//W3C//DTD SVG 1.1//EN"
  "http://www.w3.org/Graphics/SVG/1.1/DTD/svg11.dtd">
<svg xmlns:xlink="http://www.w3.org/1999/xlink" width="460.8pt" height="345.6pt" viewBox="0 0 460.8 345.6" xmlns="http://www.w3.org/2000/svg" version="1.1">
 <metadata>
  <rdf:RDF xmlns:dc="http://purl.org/dc/elements/1.1/" xmlns:cc="http://creativecommons.org/ns#" xmlns:rdf="http://www.w3.org/1999/02/22-rdf-syntax-ns#">
   <cc:Work>
    <dc:type rdf:resource="http://purl.org/dc/dcmitype/StillImage"/>
    <dc:date>2022-01-01T03:08:01.073999</dc:date>
    <dc:format>image/svg+xml</dc:format>
    <dc:creator>
     <cc:Agent>
      <dc:title>Matplotlib v3.5.1, https://matplotlib.org/</dc:title>
     </cc:Agent>
    </dc:creator>
   </cc:Work>
  </rdf:RDF>
 </metadata>
 <defs>
  <style type="text/css">*{stroke-linejoin: round; stroke-linecap: butt}</style>
 </defs>
 <g id="figure_1">
  <g id="patch_1">
   <path d="M 0 345.6 
L 460.8 345.6 
L 460.8 0 
L 0 0 
z
" style="fill: #ffffff"/>
  </g>
  <g id="axes_1">
   <g id="patch_2">
    <path d="M 94.984063 332.38 
L 268.172031 332.38 
L 268.172031 35.01 
L 94.984063 35.01 
z
" style="fill: #f5f4f3"/>
   </g>
   <g id="patch_3">
    <path d="M 94.984063 318.863182 
L 796.196412 318.863182 
L 796.196412 287.058904 
L 94.984063 287.058904 
z
" clip-path="url(#p9800e23f0f)" style="fill: #6768ab"/>
   </g>
   <g id="patch_4">
    <path d="M 94.984063 279.107834 
L 168.677713 279.107834 
L 168.677713 247.303556 
L 94.984063 247.303556 
z
" clip-path="url(#p9800e23f0f)" style="fill: #6768ab"/>
   </g>
   <g id="patch_5">
    <path d="M 94.984063 239.352487 
L 172.320524 239.352487 
L 172.320524 207.548209 
L 94.984063 207.548209 
z
" clip-path="url(#p9800e23f0f)" style="fill: #6768ab"/>
   </g>
   <g id="patch_6">
    <path d="M 94.984063 199.597139 
L 175.959866 199.597139 
L 175.959866 167.792861 
L 94.984063 167.792861 
z
" clip-path="url(#p9800e23f0f)" style="fill: #6768ab"/>
   </g>
   <g id="patch_7">
    <path d="M 94.984063 159.841791 
L 759.612264 159.841791 
L 759.612264 128.037513 
L 94.984063 128.037513 
z
" clip-path="url(#p9800e23f0f)" style="fill: #6768ab"/>
   </g>
   <g id="patch_8">
    <path d="M 94.984063 120.086444 
L 252.42767 120.086444 
L 252.42767 88.282166 
L 94.984063 88.282166 
z
" clip-path="url(#p9800e23f0f)" style="fill: #6768ab"/>
   </g>
   <g id="patch_9">
    <path d="M 94.984063 80.331096 
L 156.539059 80.331096 
L 156.539059 48.526818 
L 94.984063 48.526818 
z
" clip-path="url(#p9800e23f0f)" style="fill: #6768ab"/>
   </g>
   <g id="matplotlib.axis_1">
    <g id="ytick_1">
     <g id="line2d_1">
      <defs>
       <path id="m0a459d6a9a" d="M 0 0 
L -3.5 0 
" style="stroke: #676466; stroke-width: 0.8"/>
      </defs>
      <g>
       <use xlink:href="#m0a459d6a9a" x="94.984063" y="302.961043" style="fill: #676466; stroke: #676466; stroke-width: 0.8"/>
      </g>
     </g>
     <g id="text_1">
      <text style="fill: #2d282e; font: 10px 'monospace'; text-anchor: end" x="87.984063" y="306.786824" transform="rotate(-0, 87.984063, 306.786824)">r2d2-v0.8</text>
     </g>
    </g>
    <g id="ytick_2">
     <g id="line2d_2">
      <g>
       <use xlink:href="#m0a459d6a9a" x="94.984063" y="263.205695" style="fill: #676466; stroke: #676466; stroke-width: 0.8"/>
      </g>
     </g>
     <g id="text_2">
      <text style="fill: #2d282e; font: 10px 'monospace'; text-anchor: end" x="87.984063" y="267.02132" transform="rotate(-0, 87.984063, 267.02132)">qp-v0.1.3</text>
     </g>
    </g>
    <g id="ytick_3">
     <g id="line2d_3">
      <g>
       <use xlink:href="#m0a459d6a9a" x="94.984063" y="223.450348" style="fill: #676466; stroke: #676466; stroke-width: 0.8"/>
      </g>
     </g>
     <g id="text_3">
      <text style="fill: #2d282e; font: 10px 'monospace'; text-anchor: end" x="87.984063" y="227.265973" transform="rotate(-0, 87.984063, 227.265973)">qp-v0.1.2</text>
     </g>
    </g>
    <g id="ytick_4">
     <g id="line2d_4">
      <g>
       <use xlink:href="#m0a459d6a9a" x="94.984063" y="183.695" style="fill: #676466; stroke: #676466; stroke-width: 0.8"/>
      </g>
     </g>
     <g id="text_4">
      <text style="fill: #2d282e; font: 10px 'monospace'; text-anchor: end" x="87.984063" y="187.510625" transform="rotate(-0, 87.984063, 187.510625)">qp-v0.1.1</text>
     </g>
    </g>
    <g id="ytick_5">
     <g id="line2d_5">
      <g>
       <use xlink:href="#m0a459d6a9a" x="94.984063" y="143.939652" style="fill: #676466; stroke: #676466; stroke-width: 0.8"/>
      </g>
     </g>
     <g id="text_5">
      <text style="fill: #2d282e; font: 10px 'monospace'; text-anchor: end" x="87.984063" y="147.765434" transform="rotate(-0, 87.984063, 147.765434)">mobc-v0.7</text>
     </g>
    </g>
    <g id="ytick_6">
     <g id="line2d_6">
      <g>
       <use xlink:href="#m0a459d6a9a" x="94.984063" y="104.184305" style="fill: #676466; stroke: #676466; stroke-width: 0.8"/>
      </g>
     </g>
     <g id="text_6">
      <text style="fill: #2d282e; font: 10px 'monospace'; text-anchor: end" x="87.984063" y="108.010086" transform="rotate(-0, 87.984063, 108.010086)">deadpool-v0.9</text>
     </g>
    </g>
    <g id="ytick_7">
     <g id="line2d_7">
      <g>
       <use xlink:href="#m0a459d6a9a" x="94.984063" y="64.428957" style="fill: #676466; stroke: #676466; stroke-width: 0.8"/>
      </g>
     </g>
     <g id="text_7">
      <text style="fill: #2d282e; font: 10px 'monospace'; text-anchor: end" x="87.984063" y="68.254738" transform="rotate(-0, 87.984063, 68.254738)">bb8-v0.7</text>
     </g>
    </g>
   </g>
   <g id="patch_10">
    <path d="M 94.984063 332.38 
L 94.984063 35.01 
" style="fill: none; stroke: #676466; stroke-width: 0.8; stroke-linejoin: miter; stroke-linecap: square"/>
   </g>
   <g id="patch_11">
    <path d="M 94.984063 332.38 
L 268.172031 332.38 
" style="fill: none; stroke: #676466; stroke-width: 0.8; stroke-linejoin: miter; stroke-linecap: square"/>
   </g>
   <g id="patch_12">
    <path d="M 94.984063 35.01 
L 268.172031 35.01 
" style="fill: none; stroke: #676466; stroke-width: 0.8; stroke-linejoin: miter; stroke-linecap: square"/>
   </g>
   <g id="text_8">
    <text style="fill: #ffffff; font: 9px 'monospace'; text-anchor: start" x="128.677713" y="265.703195" transform="rotate(-0, 128.677713, 265.703195)">   42µs</text>
   </g>
   <g id="text_9">
    <text style="fill: #ffffff; font: 9px 'monospace'; text-anchor: start" x="132.320524" y="225.947848" transform="rotate(-0, 132.320524, 225.947848)">   44µs</text>
   </g>
   <g id="text_10">
    <text style="fill: #ffffff; font: 9px 'monospace'; text-anchor: start" x="135.959866" y="186.1925" transform="rotate(-0, 135.959866, 186.1925)">   46µs</text>
   </g>
   <g id="text_11">
    <text style="fill: #ffffff; font: 9px 'monospace'; text-anchor: start" x="212.42767" y="106.681805" transform="rotate(-0, 212.42767, 106.681805)">   90µs</text>
   </g>
   <g id="text_12">
    <text style="fill: #ffffff; font: 9px 'monospace'; text-anchor: start" x="116.539059" y="66.926457" transform="rotate(-0, 116.539059, 66.926457)">   35µs</text>
   </g>
  </g>
  <g id="axes_2">
   <g id="patch_13">
    <path d="M 277.892031 332.38 
L 451.08 332.38 
L 451.08 35.01 
L 277.892031 35.01 
z
" style="fill: #f5f4f3"/>
   </g>
   <g id="patch_14">
    <path d="M -668.501367 318.863182 
L 392.154665 318.863182 
L 392.154665 287.058904 
L -668.501367 287.058904 
z
" clip-path="url(#p7f7becc7ef)" style="fill: #6768ab"/>
   </g>
   <g id="patch_15">
    <path d="M -668.501367 279.107834 
L -557.032116 279.107834 
L -557.032116 247.303556 
L -668.501367 247.303556 
z
" clip-path="url(#p7f7becc7ef)" style="fill: #6768ab"/>
   </g>
   <g id="patch_16">
    <path d="M -668.501367 239.352487 
L -551.52199 239.352487 
L -551.52199 207.548209 
L -668.501367 207.548209 
z
" clip-path="url(#p7f7becc7ef)" style="fill: #6768ab"/>
   </g>
   <g id="patch_17">
    <path d="M -668.501367 199.597139 
L -546.017109 199.597139 
L -546.017109 167.792861 
L -668.501367 167.792861 
z
" clip-path="url(#p7f7becc7ef)" style="fill: #6768ab"/>
   </g>
   <g id="patch_18">
    <path d="M -668.501367 159.841791 
L 336.817366 159.841791 
L 336.817366 128.037513 
L -668.501367 128.037513 
z
" clip-path="url(#p7f7becc7ef)" style="fill: #6768ab"/>
   </g>
   <g id="patch_19">
    <path d="M -668.501367 120.086444 
L -430.351665 120.086444 
L -430.351665 88.282166 
L -668.501367 88.282166 
z
" clip-path="url(#p7f7becc7ef)" style="fill: #6768ab"/>
   </g>
   <g id="patch_20">
    <path d="M -668.501367 80.331096 
L -575.393084 80.331096 
L -575.393084 48.526818 
L -668.501367 48.526818 
z
" clip-path="url(#p7f7becc7ef)" style="fill: #6768ab"/>
   </g>
   <g id="matplotlib.axis_2">
    <g id="ytick_8"/>
    <g id="ytick_9"/>
    <g id="ytick_10"/>
    <g id="ytick_11"/>
    <g id="ytick_12"/>
    <g id="ytick_13"/>
    <g id="ytick_14"/>
   </g>
   <g id="patch_21">
    <path d="M 451.08 332.38 
L 451.08 35.01 
" style="fill: none; stroke: #676466; stroke-width: 0.8; stroke-linejoin: miter; stroke-linecap: square"/>
   </g>
   <g id="patch_22">
    <path d="M 277.892031 332.38 
L 451.08 332.38 
" style="fill: none; stroke: #676466; stroke-width: 0.8; stroke-linejoin: miter; stroke-linecap: square"/>
   </g>
   <g id="patch_23">
    <path d="M 277.892031 35.01 
L 451.08 35.01 
" style="fill: none; stroke: #676466; stroke-width: 0.8; stroke-linejoin: miter; stroke-linecap: square"/>
   </g>
   <g id="text_13">
    <text style="fill: #2d282e; font: 9px 'monospace'; text-anchor: start" x="395.154665" y="305.458543" transform="rotate(-0, 395.154665, 305.458543)">  404µs</text>
   </g>
   <g id="text_14">
    <text style="fill: #2d282e; font: 9px 'monospace'; text-anchor: start" x="339.817366" y="146.437152" transform="rotate(-0, 339.817366, 146.437152)">  383µs</text>
   </g>
  </g>
  <g id="text_15">
   <text style="fill: #2d282e; font: 16px 'monospace'; text-anchor: middle" x="230.4" y="19.1545" transform="rotate(-0, 230.4, 19.1545)">Benchmark (pool=16, workers=16)</text>
  </g>
 </g>
 <defs>
  <clipPath id="p9800e23f0f">
   <rect x="94.984063" y="35.01" width="173.187969" height="297.37"/>
  </clipPath>
  <clipPath id="p7f7becc7ef">
   <rect x="277.892031" y="35.01" width="173.187969" height="297.37"/>
  </clipPath>
 </defs>
</svg>
