<?xml version="1.0" encoding="utf-8" standalone="no"?>
<!DOCTYPE svg PUBLIC "-//W3C//DTD SVG 1.1//EN"
  "http://www.w3.org/Graphics/SVG/1.1/DTD/svg11.dtd">
<svg xmlns:xlink="http://www.w3.org/1999/xlink" width="460.8pt" height="345.6pt" viewBox="0 0 460.8 345.6" xmlns="http://www.w3.org/2000/svg" version="1.1">
 <metadata>
  <rdf:RDF xmlns:dc="http://purl.org/dc/elements/1.1/" xmlns:cc="http://creativecommons.org/ns#" xmlns:rdf="http://www.w3.org/1999/02/22-rdf-syntax-ns#">
   <cc:Work>
    <dc:type rdf:resource="http://purl.org/dc/dcmitype/StillImage"/>
    <dc:date>2022-01-01T03:52:33.821624</dc:date>
    <dc:format>image/svg+xml</dc:format>
    <dc:creator>
     <cc:Agent>
      <dc:title>Matplotlib v3.5.1, https://matplotlib.org/</dc:title>
     </cc:Agent>
    </dc:creator>
   </cc:Work>
  </rdf:RDF>
 </metadata>
 <defs>
  <style type="text/css">*{stroke-linejoin: round; stroke-linecap: butt}</style>
 </defs>
 <g id="figure_1">
  <g id="patch_1">
   <path d="M 0 345.6 
L 460.8 345.6 
L 460.8 0 
L 0 0 
z
" style="fill: #ffffff"/>
  </g>
  <g id="axes_1">
   <g id="patch_2">
    <path d="M 94.984063 332.38 
L 265.543507 332.38 
L 265.543507 35.01 
L 94.984063 35.01 
z
" style="fill: #f5f4f3"/>
   </g>
   <g id="patch_3">
    <path d="M 94.984063 318.863182 
L 728.163295 318.863182 
L 728.163295 287.058904 
L 94.984063 287.058904 
z
" clip-path="url(#p26d091729f)" style="fill: #6768ab"/>
   </g>
   <g id="patch_4">
    <path d="M 94.984063 279.107834 
L 163.83779 279.107834 
L 163.83779 247.303556 
L 94.984063 247.303556 
z
" clip-path="url(#p26d091729f)" style="fill: #6768ab"/>
   </g>
   <g id="patch_5">
    <path d="M 94.984063 239.352487 
L 169.095552 239.352487 
L 169.095552 207.548209 
L 94.984063 207.548209 
z
" clip-path="url(#p26d091729f)" style="fill: #6768ab"/>
   </g>
   <g id="patch_6">
    <path d="M 94.984063 199.597139 
L 172.597807 199.597139 
L 172.597807 167.792861 
L 94.984063 167.792861 
z
" clip-path="url(#p26d091729f)" style="fill: #6768ab"/>
   </g>
   <g id="patch_7">
    <path d="M 94.984063 159.841791 
L 872.002762 159.841791 
L 872.002762 128.037513 
L 94.984063 128.037513 
z
" clip-path="url(#p26d091729f)" style="fill: #6768ab"/>
   </g>
   <g id="patch_8">
    <path d="M 94.984063 120.086444 
L 250.038103 120.086444 
L 250.038103 88.282166 
L 94.984063 88.282166 
z
" clip-path="url(#p26d091729f)" style="fill: #6768ab"/>
   </g>
   <g id="patch_9">
    <path d="M 94.984063 80.331096 
L 159.809935 80.331096 
L 159.809935 48.526818 
L 94.984063 48.526818 
z
" clip-path="url(#p26d091729f)" style="fill: #6768ab"/>
   </g>
   <g id="matplotlib.axis_1">
    <g id="ytick_1">
     <g id="line2d_1">
      <defs>
       <path id="md41adbaba3" d="M 0 0 
L -3.5 0 
" style="stroke: #676466; stroke-width: 0.8"/>
      </defs>
      <g>
       <use xlink:href="#md41adbaba3" x="94.984063" y="302.961043" style="fill: #676466; stroke: #676466; stroke-width: 0.8"/>
      </g>
     </g>
     <g id="text_1">
      <text style="fill: #2d282e; font: 10px 'monospace'; text-anchor: end" x="87.984063" y="306.786824" transform="rotate(-0, 87.984063, 306.786824)">r2d2-v0.8</text>
     </g>
    </g>
    <g id="ytick_2">
     <g id="line2d_2">
      <g>
       <use xlink:href="#md41adbaba3" x="94.984063" y="263.205695" style="fill: #676466; stroke: #676466; stroke-width: 0.8"/>
      </g>
     </g>
     <g id="text_2">
      <text style="fill: #2d282e; font: 10px 'monospace'; text-anchor: end" x="87.984063" y="267.02132" transform="rotate(-0, 87.984063, 267.02132)">qp-v0.1.3</text>
     </g>
    </g>
    <g id="ytick_3">
     <g id="line2d_3">
      <g>
       <use xlink:href="#md41adbaba3" x="94.984063" y="223.450348" style="fill: #676466; stroke: #676466; stroke-width: 0.8"/>
      </g>
     </g>
     <g id="text_3">
      <text style="fill: #2d282e; font: 10px 'monospace'; text-anchor: end" x="87.984063" y="227.265973" transform="rotate(-0, 87.984063, 227.265973)">qp-v0.1.2</text>
     </g>
    </g>
    <g id="ytick_4">
     <g id="line2d_4">
      <g>
       <use xlink:href="#md41adbaba3" x="94.984063" y="183.695" style="fill: #676466; stroke: #676466; stroke-width: 0.8"/>
      </g>
     </g>
     <g id="text_4">
      <text style="fill: #2d282e; font: 10px 'monospace'; text-anchor: end" x="87.984063" y="187.510625" transform="rotate(-0, 87.984063, 187.510625)">qp-v0.1.1</text>
     </g>
    </g>
    <g id="ytick_5">
     <g id="line2d_5">
      <g>
       <use xlink:href="#md41adbaba3" x="94.984063" y="143.939652" style="fill: #676466; stroke: #676466; stroke-width: 0.8"/>
      </g>
     </g>
     <g id="text_5">
      <text style="fill: #2d282e; font: 10px 'monospace'; text-anchor: end" x="87.984063" y="147.765434" transform="rotate(-0, 87.984063, 147.765434)">mobc-v0.7</text>
     </g>
    </g>
    <g id="ytick_6">
     <g id="line2d_6">
      <g>
       <use xlink:href="#md41adbaba3" x="94.984063" y="104.184305" style="fill: #676466; stroke: #676466; stroke-width: 0.8"/>
      </g>
     </g>
     <g id="text_6">
      <text style="fill: #2d282e; font: 10px 'monospace'; text-anchor: end" x="87.984063" y="108.010086" transform="rotate(-0, 87.984063, 108.010086)">deadpool-v0.9</text>
     </g>
    </g>
    <g id="ytick_7">
     <g id="line2d_7">
      <g>
       <use xlink:href="#md41adbaba3" x="94.984063" y="64.428957" style="fill: #676466; stroke: #676466; stroke-width: 0.8"/>
      </g>
     </g>
     <g id="text_7">
      <text style="fill: #2d282e; font: 10px 'monospace'; text-anchor: end" x="87.984063" y="68.254738" transform="rotate(-0, 87.984063, 68.254738)">bb8-v0.7</text>
     </g>
    </g>
   </g>
   <g id="patch_10">
    <path d="M 94.984063 332.38 
L 94.984063 35.01 
" style="fill: none; stroke: #676466; stroke-width: 0.8; stroke-linejoin: miter; stroke-linecap: square"/>
   </g>
   <g id="patch_11">
    <path d="M 94.984063 332.38 
L 265.543507 332.38 
" style="fill: none; stroke: #676466; stroke-width: 0.8; stroke-linejoin: miter; stroke-linecap: square"/>
   </g>
   <g id="patch_12">
    <path d="M 94.984063 35.01 
L 265.543507 35.01 
" style="fill: none; stroke: #676466; stroke-width: 0.8; stroke-linejoin: miter; stroke-linecap: square"/>
   </g>
   <g id="text_8">
    <text style="fill: #ffffff; font: 9px 'monospace'; text-anchor: end" x="163.83779" y="265.703195" transform="rotate(-0, 163.83779, 265.703195)"> 39µs </text>
   </g>
   <g id="text_9">
    <text style="fill: #ffffff; font: 9px 'monospace'; text-anchor: end" x="169.095552" y="225.947848" transform="rotate(-0, 169.095552, 225.947848)"> 42µs </text>
   </g>
   <g id="text_10">
    <text style="fill: #ffffff; font: 9px 'monospace'; text-anchor: end" x="172.597807" y="186.1925" transform="rotate(-0, 172.597807, 186.1925)"> 44µs </text>
   </g>
   <g id="text_11">
    <text style="fill: #ffffff; font: 9px 'monospace'; text-anchor: end" x="250.038103" y="106.681805" transform="rotate(-0, 250.038103, 106.681805)"> 88µs </text>
   </g>
   <g id="text_12">
    <text style="fill: #ffffff; font: 9px 'monospace'; text-anchor: end" x="159.809935" y="66.926457" transform="rotate(-0, 159.809935, 66.926457)"> 37µs </text>
   </g>
  </g>
  <g id="axes_2">
   <g id="patch_13">
    <path d="M 275.263507 332.38 
L 445.822951 332.38 
L 445.822951 35.01 
L 275.263507 35.01 
z
" style="fill: #f5f4f3"/>
   </g>
   <g id="patch_14">
    <path d="M -161.934674 318.863182 
L 307.25075 318.863182 
L 307.25075 287.058904 
L -161.934674 287.058904 
z
" clip-path="url(#pcc14f9d0bf)" style="fill: #6768ab"/>
   </g>
   <g id="patch_15">
    <path d="M -161.934674 279.107834 
L -110.914104 279.107834 
L -110.914104 247.303556 
L -161.934674 247.303556 
z
" clip-path="url(#pcc14f9d0bf)" style="fill: #6768ab"/>
   </g>
   <g id="patch_16">
    <path d="M -161.934674 239.352487 
L -107.018105 239.352487 
L -107.018105 207.548209 
L -161.934674 207.548209 
z
" clip-path="url(#pcc14f9d0bf)" style="fill: #6768ab"/>
   </g>
   <g id="patch_17">
    <path d="M -161.934674 199.597139 
L -104.422937 199.597139 
L -104.422937 167.792861 
L -161.934674 167.792861 
z
" clip-path="url(#pcc14f9d0bf)" style="fill: #6768ab"/>
   </g>
   <g id="patch_18">
    <path d="M -161.934674 159.841791 
L 413.835707 159.841791 
L 413.835707 128.037513 
L -161.934674 128.037513 
z
" clip-path="url(#pcc14f9d0bf)" style="fill: #6768ab"/>
   </g>
   <g id="patch_19">
    <path d="M -161.934674 120.086444 
L -47.039725 120.086444 
L -47.039725 88.282166 
L -161.934674 88.282166 
z
" clip-path="url(#pcc14f9d0bf)" style="fill: #6768ab"/>
   </g>
   <g id="patch_20">
    <path d="M -161.934674 80.331096 
L -113.898742 80.331096 
L -113.898742 48.526818 
L -161.934674 48.526818 
z
" clip-path="url(#pcc14f9d0bf)" style="fill: #6768ab"/>
   </g>
   <g id="matplotlib.axis_2">
    <g id="ytick_8"/>
    <g id="ytick_9"/>
    <g id="ytick_10"/>
    <g id="ytick_11"/>
    <g id="ytick_12"/>
    <g id="ytick_13"/>
    <g id="ytick_14"/>
   </g>
   <g id="patch_21">
    <path d="M 445.822951 332.38 
L 445.822951 35.01 
" style="fill: none; stroke: #676466; stroke-width: 0.8; stroke-linejoin: miter; stroke-linecap: square"/>
   </g>
   <g id="patch_22">
    <path d="M 275.263507 332.38 
L 445.822951 332.38 
" style="fill: none; stroke: #676466; stroke-width: 0.8; stroke-linejoin: miter; stroke-linecap: square"/>
   </g>
   <g id="patch_23">
    <path d="M 275.263507 35.01 
L 445.822951 35.01 
" style="fill: none; stroke: #676466; stroke-width: 0.8; stroke-linejoin: miter; stroke-linecap: square"/>
   </g>
   <g id="text_13">
    <text style="fill: #2d282e; font: 9px 'monospace'; text-anchor: start" x="307.25075" y="305.458543" transform="rotate(-0, 307.25075, 305.458543)"> 361µs </text>
   </g>
   <g id="text_14">
    <text style="fill: #2d282e; font: 9px 'monospace'; text-anchor: start" x="413.835707" y="146.437152" transform="rotate(-0, 413.835707, 146.437152)"> 443µs </text>
   </g>
  </g>
  <g id="text_15">
   <text style="fill: #2d282e; font: 16px 'monospace'; text-anchor: middle" x="230.4" y="19.1545" transform="rotate(-0, 230.4, 19.1545)">Benchmark (pool=8, workers=16)</text>
  </g>
 </g>
 <defs>
  <clipPath id="p26d091729f">
   <rect x="94.984063" y="35.01" width="170.559444" height="297.37"/>
  </clipPath>
  <clipPath id="pcc14f9d0bf">
   <rect x="275.263507" y="35.01" width="170.559444" height="297.37"/>
  </clipPath>
 </defs>
</svg>
